<svg width="561" height="495" xmlns="http://www.w3.org/2000/svg" xmlns:xlink="http://www.w3.org/1999/xlink" xml:space="preserve" overflow="hidden"><defs><clipPath id="clip0"><rect x="-345" y="133" width="561" height="495"/></clipPath><clipPath id="clip1"><rect x="-345" y="133" width="387" height="495"/></clipPath><clipPath id="clip2"><rect x="-345" y="133" width="387" height="495"/></clipPath></defs><g clip-path="url(#clip0)" transform="translate(345 -133)"><path d="M-120 512-120 556 74 556 74 512ZM-30 432-30 476 164 476 164 432ZM-30 353-30 397 164 397 164 353ZM-31 274-31 318 163 318 163 274ZM-120 196-120 240 74 240 74 196ZM-183 148 216 148 216 613-183 613Z" fill="#167ABF" fill-rule="evenodd"/><g clip-path="url(#clip1)"><g clip-path="url(#clip2)"><text fill="#ED225D" font-family="Bahnschrift SemiBold,Bahnschrift SemiBold_MSFontService,sans-serif" font-weight="600" font-size="1143" transform="matrix(0.965153 0 0 0.964826 -426.506 1022)">*</text><text fill="#ED225D" font-family="Bahnschrift SemiBold,Bahnschrift SemiBold_MSFontService,sans-serif" font-weight="600" font-size="1143" transform="matrix(0.965153 0 0 0.964826 47.867 1022)"> </text></g></g><path d="M-345 148-238 148-238 613-345 613Z" fill="#167ABF"/></g></svg>